<mxfile host="65bd71144e">
    <diagram id="pnW4RJUh1y0-BgwvNeCk" name="Page-1">
        <mxGraphModel dx="1663" dy="2600" grid="1" gridSize="10" guides="1" tooltips="1" connect="1" arrows="1" fold="1" page="1" pageScale="1" pageWidth="1100" pageHeight="850" math="0" shadow="0">
            <root>
                <mxCell id="0"/>
                <mxCell id="1" parent="0"/>
                <mxCell id="8" value="" style="rounded=0;whiteSpace=wrap;html=1;" vertex="1" parent="1">
                    <mxGeometry x="290" y="75" width="330" height="170" as="geometry"/>
                </mxCell>
                <mxCell id="5aPsQx6Y8apsw-u8vKCa-23" style="edgeStyle=orthogonalEdgeStyle;rounded=0;orthogonalLoop=1;jettySize=auto;html=1;exitX=0.5;exitY=1;exitDx=0;exitDy=0;entryX=0.5;entryY=0;entryDx=0;entryDy=0;endArrow=none;endFill=0;" parent="1" source="5aPsQx6Y8apsw-u8vKCa-2" target="5aPsQx6Y8apsw-u8vKCa-3" edge="1">
                    <mxGeometry relative="1" as="geometry"/>
                </mxCell>
                <mxCell id="5aPsQx6Y8apsw-u8vKCa-24" style="edgeStyle=orthogonalEdgeStyle;rounded=0;orthogonalLoop=1;jettySize=auto;html=1;exitX=0.5;exitY=1;exitDx=0;exitDy=0;entryX=0.5;entryY=0;entryDx=0;entryDy=0;endArrow=none;endFill=0;" parent="1" source="5aPsQx6Y8apsw-u8vKCa-2" target="5aPsQx6Y8apsw-u8vKCa-9" edge="1">
                    <mxGeometry relative="1" as="geometry"/>
                </mxCell>
                <mxCell id="5aPsQx6Y8apsw-u8vKCa-2" value="App" style="rounded=1;whiteSpace=wrap;html=1;" parent="1" vertex="1">
                    <mxGeometry x="580" y="375" width="120" height="60" as="geometry"/>
                </mxCell>
                <mxCell id="5aPsQx6Y8apsw-u8vKCa-18" style="edgeStyle=orthogonalEdgeStyle;rounded=0;orthogonalLoop=1;jettySize=auto;html=1;exitX=0.5;exitY=1;exitDx=0;exitDy=0;entryX=0.5;entryY=0;entryDx=0;entryDy=0;endArrow=none;endFill=0;" parent="1" source="5aPsQx6Y8apsw-u8vKCa-3" target="5aPsQx6Y8apsw-u8vKCa-8" edge="1">
                    <mxGeometry relative="1" as="geometry"/>
                </mxCell>
                <mxCell id="5aPsQx6Y8apsw-u8vKCa-19" style="edgeStyle=orthogonalEdgeStyle;rounded=0;orthogonalLoop=1;jettySize=auto;html=1;exitX=0.5;exitY=1;exitDx=0;exitDy=0;entryX=0.5;entryY=0;entryDx=0;entryDy=0;endArrow=none;endFill=0;" parent="1" source="5aPsQx6Y8apsw-u8vKCa-3" target="5aPsQx6Y8apsw-u8vKCa-4" edge="1">
                    <mxGeometry relative="1" as="geometry"/>
                </mxCell>
                <mxCell id="5aPsQx6Y8apsw-u8vKCa-20" style="edgeStyle=orthogonalEdgeStyle;rounded=0;orthogonalLoop=1;jettySize=auto;html=1;exitX=0.5;exitY=1;exitDx=0;exitDy=0;endArrow=none;endFill=0;" parent="1" source="5aPsQx6Y8apsw-u8vKCa-3" target="5aPsQx6Y8apsw-u8vKCa-16" edge="1">
                    <mxGeometry relative="1" as="geometry"/>
                </mxCell>
                <mxCell id="5aPsQx6Y8apsw-u8vKCa-3" value="Sidebar" style="rounded=1;whiteSpace=wrap;html=1;" parent="1" vertex="1">
                    <mxGeometry x="450" y="495" width="120" height="60" as="geometry"/>
                </mxCell>
                <mxCell id="5aPsQx6Y8apsw-u8vKCa-4" value="Appointments" style="rounded=1;whiteSpace=wrap;html=1;" parent="1" vertex="1">
                    <mxGeometry x="490" y="635" width="120" height="40" as="geometry"/>
                </mxCell>
                <mxCell id="5aPsQx6Y8apsw-u8vKCa-21" style="edgeStyle=orthogonalEdgeStyle;rounded=0;orthogonalLoop=1;jettySize=auto;html=1;exitX=0.5;exitY=0;exitDx=0;exitDy=0;entryX=0.5;entryY=1;entryDx=0;entryDy=0;endArrow=none;endFill=0;" parent="1" source="5aPsQx6Y8apsw-u8vKCa-5" target="5aPsQx6Y8apsw-u8vKCa-12" edge="1">
                    <mxGeometry relative="1" as="geometry"/>
                </mxCell>
                <mxCell id="5aPsQx6Y8apsw-u8vKCa-5" value="Notification" style="rounded=1;whiteSpace=wrap;html=1;" parent="1" vertex="1">
                    <mxGeometry x="70" y="735" width="120" height="40" as="geometry"/>
                </mxCell>
                <mxCell id="11" style="edgeStyle=none;rounded=0;html=1;exitX=1;exitY=0.5;exitDx=0;exitDy=0;exitPerimeter=0;entryX=0;entryY=0.5;entryDx=0;entryDy=0;startArrow=classic;startFill=1;endArrow=classic;endFill=1;strokeWidth=1;" edge="1" parent="1" source="5aPsQx6Y8apsw-u8vKCa-7" target="5aPsQx6Y8apsw-u8vKCa-2">
                    <mxGeometry relative="1" as="geometry"/>
                </mxCell>
                <mxCell id="12" style="edgeStyle=none;rounded=0;html=1;exitX=0.5;exitY=0;exitDx=0;exitDy=0;exitPerimeter=0;startArrow=classic;startFill=1;endArrow=classic;endFill=1;strokeWidth=1;" edge="1" parent="1" source="5aPsQx6Y8apsw-u8vKCa-7">
                    <mxGeometry relative="1" as="geometry">
                        <mxPoint x="380" y="245" as="targetPoint"/>
                    </mxGeometry>
                </mxCell>
                <mxCell id="5aPsQx6Y8apsw-u8vKCa-7" value="Store" style="shape=cylinder3;whiteSpace=wrap;html=1;boundedLbl=1;backgroundOutline=1;size=15;" parent="1" vertex="1">
                    <mxGeometry x="350" y="365" width="60" height="80" as="geometry"/>
                </mxCell>
                <mxCell id="5aPsQx6Y8apsw-u8vKCa-8" value="Inbox" style="rounded=1;whiteSpace=wrap;html=1;" parent="1" vertex="1">
                    <mxGeometry x="350" y="635" width="120" height="40" as="geometry"/>
                </mxCell>
                <mxCell id="5aPsQx6Y8apsw-u8vKCa-25" style="edgeStyle=orthogonalEdgeStyle;rounded=0;orthogonalLoop=1;jettySize=auto;html=1;exitX=1;exitY=0.5;exitDx=0;exitDy=0;entryX=0;entryY=0.5;entryDx=0;entryDy=0;endArrow=none;endFill=0;" parent="1" source="5aPsQx6Y8apsw-u8vKCa-9" target="5aPsQx6Y8apsw-u8vKCa-10" edge="1">
                    <mxGeometry relative="1" as="geometry"/>
                </mxCell>
                <mxCell id="5aPsQx6Y8apsw-u8vKCa-26" style="edgeStyle=orthogonalEdgeStyle;rounded=0;orthogonalLoop=1;jettySize=auto;html=1;exitX=1;exitY=0.5;exitDx=0;exitDy=0;entryX=0;entryY=0.5;entryDx=0;entryDy=0;endArrow=none;endFill=0;" parent="1" source="5aPsQx6Y8apsw-u8vKCa-9" target="5aPsQx6Y8apsw-u8vKCa-14" edge="1">
                    <mxGeometry relative="1" as="geometry"/>
                </mxCell>
                <mxCell id="5aPsQx6Y8apsw-u8vKCa-27" style="edgeStyle=orthogonalEdgeStyle;rounded=0;orthogonalLoop=1;jettySize=auto;html=1;exitX=1;exitY=0.5;exitDx=0;exitDy=0;entryX=0;entryY=0.5;entryDx=0;entryDy=0;endArrow=none;endFill=0;" parent="1" source="5aPsQx6Y8apsw-u8vKCa-9" target="5aPsQx6Y8apsw-u8vKCa-11" edge="1">
                    <mxGeometry relative="1" as="geometry"/>
                </mxCell>
                <mxCell id="5aPsQx6Y8apsw-u8vKCa-9" value="Nav bar" style="rounded=1;whiteSpace=wrap;html=1;" parent="1" vertex="1">
                    <mxGeometry x="720" y="495" width="120" height="60" as="geometry"/>
                </mxCell>
                <mxCell id="5aPsQx6Y8apsw-u8vKCa-10" value="LogIn / SignUp" style="rounded=1;whiteSpace=wrap;html=1;" parent="1" vertex="1">
                    <mxGeometry x="930" y="445" width="120" height="40" as="geometry"/>
                </mxCell>
                <mxCell id="5aPsQx6Y8apsw-u8vKCa-11" value="User profile" style="rounded=1;whiteSpace=wrap;html=1;" parent="1" vertex="1">
                    <mxGeometry x="930" y="565" width="120" height="40" as="geometry"/>
                </mxCell>
                <mxCell id="5aPsQx6Y8apsw-u8vKCa-17" style="edgeStyle=orthogonalEdgeStyle;rounded=0;orthogonalLoop=1;jettySize=auto;html=1;exitX=0.5;exitY=0;exitDx=0;exitDy=0;entryX=0.5;entryY=1;entryDx=0;entryDy=0;endArrow=none;endFill=0;" parent="1" source="5aPsQx6Y8apsw-u8vKCa-12" target="5aPsQx6Y8apsw-u8vKCa-3" edge="1">
                    <mxGeometry relative="1" as="geometry"/>
                </mxCell>
                <mxCell id="5aPsQx6Y8apsw-u8vKCa-12" value="Dashboard" style="rounded=1;whiteSpace=wrap;html=1;" parent="1" vertex="1">
                    <mxGeometry x="210" y="635" width="120" height="40" as="geometry"/>
                </mxCell>
                <mxCell id="5aPsQx6Y8apsw-u8vKCa-14" value="SignOut" style="rounded=1;whiteSpace=wrap;html=1;" parent="1" vertex="1">
                    <mxGeometry x="930" y="505" width="120" height="40" as="geometry"/>
                </mxCell>
                <mxCell id="5aPsQx6Y8apsw-u8vKCa-22" style="edgeStyle=orthogonalEdgeStyle;rounded=0;orthogonalLoop=1;jettySize=auto;html=1;exitX=0.5;exitY=0;exitDx=0;exitDy=0;endArrow=none;endFill=0;" parent="1" source="5aPsQx6Y8apsw-u8vKCa-15" edge="1">
                    <mxGeometry relative="1" as="geometry">
                        <mxPoint x="270" y="675" as="targetPoint"/>
                    </mxGeometry>
                </mxCell>
                <mxCell id="5aPsQx6Y8apsw-u8vKCa-15" value="StatsBox" style="rounded=1;whiteSpace=wrap;html=1;" parent="1" vertex="1">
                    <mxGeometry x="210" y="735" width="120" height="40" as="geometry"/>
                </mxCell>
                <mxCell id="5aPsQx6Y8apsw-u8vKCa-16" value="Patients" style="rounded=1;whiteSpace=wrap;html=1;" parent="1" vertex="1">
                    <mxGeometry x="630" y="635" width="120" height="40" as="geometry"/>
                </mxCell>
                <mxCell id="5aPsQx6Y8apsw-u8vKCa-28" value="1" style="text;html=1;align=center;verticalAlign=middle;resizable=0;points=[];autosize=1;strokeColor=none;fillColor=none;" parent="1" vertex="1">
                    <mxGeometry x="840" y="505" width="20" height="20" as="geometry"/>
                </mxCell>
                <mxCell id="5aPsQx6Y8apsw-u8vKCa-29" value="1" style="text;html=1;align=center;verticalAlign=middle;resizable=0;points=[];autosize=1;strokeColor=none;fillColor=none;" parent="1" vertex="1">
                    <mxGeometry x="909" y="445" width="20" height="20" as="geometry"/>
                </mxCell>
                <mxCell id="5aPsQx6Y8apsw-u8vKCa-30" value="1" style="text;html=1;align=center;verticalAlign=middle;resizable=0;points=[];autosize=1;strokeColor=none;fillColor=none;" parent="1" vertex="1">
                    <mxGeometry x="910" y="505" width="20" height="20" as="geometry"/>
                </mxCell>
                <mxCell id="5aPsQx6Y8apsw-u8vKCa-31" value="1" style="text;html=1;align=center;verticalAlign=middle;resizable=0;points=[];autosize=1;strokeColor=none;fillColor=none;" parent="1" vertex="1">
                    <mxGeometry x="910" y="565" width="20" height="20" as="geometry"/>
                </mxCell>
                <mxCell id="5aPsQx6Y8apsw-u8vKCa-33" value="*" style="text;html=1;align=center;verticalAlign=middle;resizable=0;points=[];autosize=1;strokeColor=none;fillColor=none;" parent="1" vertex="1">
                    <mxGeometry x="410" y="384" width="20" height="20" as="geometry"/>
                </mxCell>
                <mxCell id="5aPsQx6Y8apsw-u8vKCa-35" value="*" style="text;html=1;align=center;verticalAlign=middle;resizable=0;points=[];autosize=1;strokeColor=none;fillColor=none;" parent="1" vertex="1">
                    <mxGeometry x="490" y="475" width="20" height="20" as="geometry"/>
                </mxCell>
                <mxCell id="5aPsQx6Y8apsw-u8vKCa-36" value="1" style="text;html=1;align=center;verticalAlign=middle;resizable=0;points=[];autosize=1;strokeColor=none;fillColor=none;" parent="1" vertex="1">
                    <mxGeometry x="760" y="475" width="20" height="20" as="geometry"/>
                </mxCell>
                <mxCell id="5aPsQx6Y8apsw-u8vKCa-37" value="1" style="text;html=1;align=center;verticalAlign=middle;resizable=0;points=[];autosize=1;strokeColor=none;fillColor=none;" parent="1" vertex="1">
                    <mxGeometry x="490" y="555" width="20" height="20" as="geometry"/>
                </mxCell>
                <mxCell id="5aPsQx6Y8apsw-u8vKCa-38" value="1" style="text;html=1;align=center;verticalAlign=middle;resizable=0;points=[];autosize=1;strokeColor=none;fillColor=none;" parent="1" vertex="1">
                    <mxGeometry x="250" y="615" width="20" height="20" as="geometry"/>
                </mxCell>
                <mxCell id="5aPsQx6Y8apsw-u8vKCa-39" value="1" style="text;html=1;align=center;verticalAlign=middle;resizable=0;points=[];autosize=1;strokeColor=none;fillColor=none;" parent="1" vertex="1">
                    <mxGeometry x="390" y="615" width="20" height="20" as="geometry"/>
                </mxCell>
                <mxCell id="5aPsQx6Y8apsw-u8vKCa-41" value="1" style="text;html=1;align=center;verticalAlign=middle;resizable=0;points=[];autosize=1;strokeColor=none;fillColor=none;" parent="1" vertex="1">
                    <mxGeometry x="530" y="615" width="20" height="20" as="geometry"/>
                </mxCell>
                <mxCell id="5aPsQx6Y8apsw-u8vKCa-42" value="1" style="text;html=1;align=center;verticalAlign=middle;resizable=0;points=[];autosize=1;strokeColor=none;fillColor=none;" parent="1" vertex="1">
                    <mxGeometry x="670" y="615" width="20" height="20" as="geometry"/>
                </mxCell>
                <mxCell id="5aPsQx6Y8apsw-u8vKCa-43" value="*" style="text;html=1;align=center;verticalAlign=middle;resizable=0;points=[];autosize=1;strokeColor=none;fillColor=none;" parent="1" vertex="1">
                    <mxGeometry x="110" y="715" width="20" height="20" as="geometry"/>
                </mxCell>
                <mxCell id="5aPsQx6Y8apsw-u8vKCa-44" value="*" style="text;html=1;align=center;verticalAlign=middle;resizable=0;points=[];autosize=1;strokeColor=none;fillColor=none;" parent="1" vertex="1">
                    <mxGeometry x="250" y="715" width="20" height="20" as="geometry"/>
                </mxCell>
                <mxCell id="5aPsQx6Y8apsw-u8vKCa-45" value="1" style="text;html=1;align=center;verticalAlign=middle;resizable=0;points=[];autosize=1;strokeColor=none;fillColor=none;" parent="1" vertex="1">
                    <mxGeometry x="250" y="675" width="20" height="20" as="geometry"/>
                </mxCell>
                <mxCell id="4" style="edgeStyle=orthogonalEdgeStyle;html=1;exitX=0.5;exitY=0;exitDx=0;exitDy=0;entryX=0.5;entryY=1;entryDx=0;entryDy=0;rounded=0;endArrow=none;endFill=0;" edge="1" parent="1" source="3" target="5aPsQx6Y8apsw-u8vKCa-12">
                    <mxGeometry relative="1" as="geometry"/>
                </mxCell>
                <mxCell id="3" value="StatsChart" style="rounded=1;whiteSpace=wrap;html=1;" vertex="1" parent="1">
                    <mxGeometry x="350" y="735" width="120" height="40" as="geometry"/>
                </mxCell>
                <mxCell id="5" value="*" style="text;html=1;align=center;verticalAlign=middle;resizable=0;points=[];autosize=1;strokeColor=none;fillColor=none;" vertex="1" parent="1">
                    <mxGeometry x="390" y="715" width="20" height="20" as="geometry"/>
                </mxCell>
                <mxCell id="6" value="" style="endArrow=none;dashed=1;html=1;rounded=0;strokeWidth=3;" edge="1" parent="1">
                    <mxGeometry width="50" height="50" relative="1" as="geometry">
                        <mxPoint x="50" y="308" as="sourcePoint"/>
                        <mxPoint x="1040" y="308" as="targetPoint"/>
                    </mxGeometry>
                </mxCell>
                <mxCell id="7" value="NoSQL Database" style="rounded=1;whiteSpace=wrap;html=1;" vertex="1" parent="1">
                    <mxGeometry x="320" y="175" width="120" height="40" as="geometry"/>
                </mxCell>
                <mxCell id="10" value="1" style="text;html=1;align=center;verticalAlign=middle;resizable=0;points=[];autosize=1;strokeColor=none;fillColor=none;" vertex="1" parent="1">
                    <mxGeometry x="560" y="384" width="20" height="20" as="geometry"/>
                </mxCell>
                <mxCell id="13" value="Google Auth Service" style="rounded=1;whiteSpace=wrap;html=1;" vertex="1" parent="1">
                    <mxGeometry x="320" y="115" width="120" height="40" as="geometry"/>
                </mxCell>
                <mxCell id="14" value="File Storage" style="rounded=1;whiteSpace=wrap;html=1;" vertex="1" parent="1">
                    <mxGeometry x="470" y="115" width="120" height="40" as="geometry"/>
                </mxCell>
                <mxCell id="15" value="&lt;b&gt;Firebase&lt;/b&gt;" style="text;html=1;strokeColor=none;fillColor=none;align=center;verticalAlign=middle;whiteSpace=wrap;rounded=0;" vertex="1" parent="1">
                    <mxGeometry x="290" y="75" width="60" height="30" as="geometry"/>
                </mxCell>
                <mxCell id="16" value="Cloud Functions" style="rounded=1;whiteSpace=wrap;html=1;" vertex="1" parent="1">
                    <mxGeometry x="470" y="175" width="120" height="40" as="geometry"/>
                </mxCell>
                <mxCell id="17" value="fetch" style="text;html=1;align=center;verticalAlign=middle;resizable=0;points=[];autosize=1;strokeColor=none;fillColor=none;" vertex="1" parent="1">
                    <mxGeometry x="380" y="335" width="40" height="20" as="geometry"/>
                </mxCell>
                <mxCell id="18" value="update" style="text;html=1;align=center;verticalAlign=middle;resizable=0;points=[];autosize=1;strokeColor=none;fillColor=none;" vertex="1" parent="1">
                    <mxGeometry x="380" y="255" width="50" height="20" as="geometry"/>
                </mxCell>
                <mxCell id="19" value="&lt;font size=&quot;1&quot;&gt;&lt;b style=&quot;font-size: 20px&quot;&gt;Server&lt;/b&gt;&lt;/font&gt;" style="text;html=1;strokeColor=none;fillColor=none;align=center;verticalAlign=middle;whiteSpace=wrap;rounded=0;" vertex="1" parent="1">
                    <mxGeometry x="110" y="195" width="60" height="30" as="geometry"/>
                </mxCell>
                <mxCell id="20" value="&lt;font size=&quot;1&quot;&gt;&lt;b style=&quot;font-size: 20px&quot;&gt;Client app&lt;/b&gt;&lt;/font&gt;" style="text;html=1;strokeColor=none;fillColor=none;align=center;verticalAlign=middle;whiteSpace=wrap;rounded=0;" vertex="1" parent="1">
                    <mxGeometry x="110" y="384" width="100" height="30" as="geometry"/>
                </mxCell>
            </root>
        </mxGraphModel>
    </diagram>
</mxfile>